<svg width="1198" height="1328" viewBox="0 0 1198 1328" fill="none" xmlns="http://www.w3.org/2000/svg">
<path d="M476.701 174.9H477.201H596.501H597.001C601.401 174.9 605.801 176.7 609.201 179.5C612.701 182.3 615.301 186.2 616.301 190.6L628.601 245.3C641.501 248.9 654.001 253.3 666.101 258.3C678.401 263.4 690.301 269.2 701.801 275.6L749.201 245.6C753.001 243.2 757.601 242.3 762.001 242.8C766.501 243.3 770.801 245.1 773.901 248.2L774.301 248.6L858.701 333C858.801 333.1 858.801 333.2 858.901 333.2L859.001 333.3C862.101 336.4 864.001 340.8 864.401 345.2C864.801 349.6 863.901 354.3 861.601 358L831.601 405.4C838.101 416.9 843.901 428.8 848.901 441.1C853.901 453.2 858.301 465.8 861.901 478.6L916.601 490.9C921.001 491.9 924.901 494.5 927.701 498C930.501 501.5 932.301 505.8 932.301 510.2V510.7V630.1V630.6C932.301 635 930.501 639.4 927.701 642.8C924.901 646.3 921.001 648.9 916.601 649.9L861.901 662.2C858.301 675.1 853.901 687.6 848.901 699.7C843.801 712 838.001 723.9 831.601 735.4L861.601 782.8C864.001 786.6 864.901 791.2 864.401 795.6C863.901 800.1 862.101 804.4 859.001 807.5L858.601 807.9L774.201 892.3C774.101 892.4 774.001 892.4 774.001 892.5L773.901 892.6C770.801 895.7 766.501 897.6 762.001 898C757.601 898.4 753.001 897.5 749.201 895.2L701.801 865.2C690.301 871.7 678.401 877.5 666.101 882.5C654.001 887.5 641.501 891.9 628.601 895.5L616.301 950.2C615.301 954.6 612.701 958.5 609.201 961.3C605.701 964.1 601.401 965.9 597.001 965.9H596.501H477.201H476.701C472.301 965.9 467.901 964.1 464.501 961.3C461.001 958.5 458.401 954.6 457.401 950.2L445.101 895.5C432.201 891.9 419.701 887.5 407.601 882.5C407.501 882.5 407.501 882.4 407.401 882.4C395.201 877.3 383.301 871.6 371.901 865.2L324.501 895.2C320.701 897.6 316.101 898.5 311.701 898C307.201 897.5 302.901 895.7 299.801 892.6C299.701 892.5 299.601 892.4 299.601 892.4L299.501 892.3L215.101 807.9L214.701 807.5C211.601 804.4 209.701 800 209.301 795.6C208.901 791.2 209.801 786.5 212.101 782.8L242.101 735.4C235.601 723.9 229.801 712 224.801 699.7C219.801 687.6 215.401 675 211.801 662.2L157.001 650.3C152.601 649.3 148.701 646.7 145.901 643.2C143.101 639.7 141.301 635.4 141.301 631V630.5V511.1V510.6C141.301 506.2 143.101 501.8 145.901 498.4C148.701 494.9 152.601 492.3 157.001 491.3L211.701 479C215.301 466.1 219.701 453.6 224.701 441.5C229.801 429.2 235.601 417.3 242.001 405.8L212.001 358.4C209.601 354.6 208.701 350 209.201 345.6C209.701 341.1 211.501 336.8 214.601 333.7C214.701 333.6 214.801 333.5 214.801 333.5L214.901 333.4L299.301 249L299.701 248.6C302.801 245.5 307.101 243.6 311.601 243.2C316.001 242.8 320.601 243.7 324.401 246L371.801 276C383.301 269.5 395.201 263.7 407.501 258.7C419.601 253.7 432.101 249.3 445.001 245.7L457.301 191C458.301 186.6 460.901 182.7 464.401 179.9C468.001 176.7 472.301 174.9 476.701 174.9ZM477.201 183.7H476.701C474.301 183.7 471.901 184.7 469.901 186.3C467.901 187.9 466.401 190.2 465.801 192.6L452.901 249.9C452.601 251.4 451.401 252.7 449.801 253.1C436.501 256.7 423.501 261.2 410.801 266.5C398.001 271.8 385.701 277.8 373.901 284.6C372.501 285.4 370.801 285.4 369.401 284.5L319.801 253.1C317.701 251.8 315.101 251.3 312.501 251.5C310.001 251.8 307.601 252.8 305.901 254.4L305.501 254.8L221.101 339.2L221.001 339.3C220.901 339.4 220.901 339.5 220.801 339.5C219.101 341.2 218.101 343.6 217.901 346.1C217.601 348.7 218.101 351.4 219.501 353.4L250.801 403C251.701 404.3 251.801 406.1 251.001 407.5C244.201 419.4 238.201 431.7 232.901 444.5C227.701 457.1 223.201 470.1 219.601 483.3C219.201 484.9 218.001 486.2 216.301 486.6L159.101 499.5C156.701 500 154.501 501.6 152.801 503.6C151.201 505.6 150.201 508 150.201 510.4V510.9V630.3V630.8C150.201 633.2 151.201 635.6 152.801 637.6C154.401 639.6 156.701 641.1 159.101 641.7L216.301 654.6C217.801 654.9 219.101 656.1 219.501 657.7C223.101 671 227.601 684 232.901 696.7C238.201 709.5 244.201 721.8 251.001 733.6C251.801 735 251.801 736.7 250.901 738.1L219.401 788C218.101 790.1 217.601 792.7 217.801 795.3C218.101 797.8 219.101 800.2 220.701 801.9L221.101 802.3L305.501 886.7L305.601 886.8C305.701 886.9 305.801 886.9 305.801 887C307.501 888.7 309.901 889.7 312.401 889.9C315.001 890.2 317.601 889.7 319.701 888.3L369.201 857C370.501 856.1 372.301 856 373.701 856.8C385.501 863.6 397.801 869.6 410.501 874.9C410.601 874.9 410.601 875 410.701 875C423.301 880.2 436.301 884.7 449.501 888.3C451.101 888.7 452.401 889.9 452.801 891.6L465.701 948.9C466.201 951.3 467.801 953.5 469.801 955.2C471.801 956.8 474.201 957.8 476.601 957.8H477.101H596.401H596.901C599.301 957.8 601.701 956.8 603.701 955.2C605.701 953.6 607.201 951.3 607.801 948.9L620.701 891.6C621.001 890.1 622.201 888.8 623.801 888.4C637.101 884.8 650.101 880.3 662.801 875C675.601 869.7 687.901 863.7 699.701 856.9C701.101 856.1 702.801 856.1 704.201 857L753.801 888.4C755.901 889.7 758.501 890.2 761.101 890C763.601 889.7 766.001 888.7 767.701 887.1L767.801 887C767.901 886.9 767.901 886.8 768.001 886.8L852.401 802.4L852.801 802C854.501 800.3 855.501 797.9 855.701 795.4C856.001 792.8 855.501 790.1 854.101 788.1L822.801 738.5C821.901 737.2 821.801 735.4 822.601 734C829.401 722.1 835.401 709.8 840.701 697C845.901 684.4 850.401 671.4 854.001 658.2C854.401 656.6 855.601 655.3 857.301 654.9L914.501 642C916.901 641.5 919.101 639.9 920.801 637.9C922.401 635.9 923.401 633.5 923.401 631.1V630.6V511.1V510.6C923.401 508.2 922.401 505.8 920.801 503.8C919.201 501.8 916.901 500.3 914.501 499.7L857.301 486.8C855.801 486.5 854.501 485.3 854.101 483.7C850.501 470.4 846.001 457.4 840.701 444.7C835.401 431.9 829.401 419.6 822.601 407.8C821.801 406.4 821.801 404.7 822.701 403.3L854.001 353.7C855.301 351.6 855.801 349 855.601 346.4C855.301 343.9 854.301 341.5 852.701 339.8L852.601 339.7C852.501 339.6 852.401 339.6 852.401 339.5L768.001 255.1L767.601 254.7C765.901 253 763.501 252 761.001 251.8C758.401 251.5 755.801 252 753.701 253.4L704.201 284.7C702.901 285.6 701.101 285.7 699.701 284.9C687.801 278.1 675.501 272 662.701 266.7C650.101 261.5 637.201 257 623.901 253.4C622.301 253 621.001 251.8 620.601 250.1L607.701 192.8C607.201 190.4 605.601 188.2 603.601 186.5C601.601 184.9 599.201 183.9 596.801 183.9H596.301H477.201V183.7Z" fill="#B8BAC6"/>
<path d="M536.9 354.2C596.7 354.2 650.8 378.4 690 417.6C729.2 456.8 753.4 510.9 753.4 570.8C753.4 630.6 729.2 684.8 690 724C650.8 763.2 596.7 787.4 536.9 787.4C477.1 787.4 423 763.2 383.8 724C344.6 684.8 320.4 630.7 320.4 570.8C320.4 511 344.6 456.8 383.8 417.6C423 378.4 477.1 354.2 536.9 354.2ZM683.8 423.8C646.2 386.2 594.3 362.9 536.9 362.9C479.5 362.9 427.6 386.2 390 423.8C352.4 461.4 329.1 513.4 329.1 570.8C329.1 628.2 352.4 680.2 390 717.8C427.6 755.4 479.5 778.7 536.9 778.7C594.3 778.7 646.2 755.4 683.8 717.8C721.4 680.2 744.7 628.2 744.7 570.8C744.7 513.4 721.4 461.4 683.8 423.8Z" fill="#B8BAC6"/>
<path d="M536.9 390.2C586.7 390.2 631.9 410.4 664.5 443.1C697.2 475.8 717.4 520.9 717.4 570.8C717.4 620.7 697.2 665.8 664.5 698.5C631.8 731.2 586.7 751.4 536.9 751.4C487.1 751.4 441.9 731.2 409.3 698.5C376.6 665.8 356.4 620.7 356.4 570.8C356.4 520.9 376.6 475.8 409.3 443.1C441.9 410.4 487.1 390.2 536.9 390.2ZM658.4 449.2C627.3 418.1 584.4 398.9 536.9 398.9C489.5 398.9 446.5 418.1 415.4 449.2C384.3 480.3 365.1 523.3 365.1 570.7C365.1 618.2 384.3 661.1 415.4 692.2C446.5 723.3 489.4 742.5 536.9 742.5C584.3 742.5 627.3 723.3 658.4 692.2C689.5 661.1 708.7 618.1 708.7 570.7C708.7 523.3 689.4 480.3 658.4 449.2Z" fill="#B8BAC6"/>
<path d="M764.3 1209.4H1024.6C1029.8 1209.4 1034.5 1211.5 1037.9 1214.9C1041.3 1218.3 1043.4 1223 1043.4 1228.2V1256.4C1043.4 1261.6 1041.3 1266.3 1037.9 1269.7C1034.5 1273.1 1029.8 1275.2 1024.6 1275.2H717.3C712.1 1275.2 707.4 1273.1 704 1269.7C700.6 1266.3 698.5 1261.6 698.5 1256.4V949C698.5 943.8 700.6 939.1 704 935.7C707.4 932.3 712.1 930.2 717.3 930.2H745.5C750.7 930.2 755.4 932.3 758.8 935.7C762.2 939.1 764.3 943.8 764.3 949V1209.4ZM1024.3 1218.2H759.9C757.5 1218.2 755.5 1216.3 755.5 1213.8V949.3C755.5 949.1 755.5 949 755.5 948.8C755.4 946.1 754.3 943.6 752.5 941.9C750.7 940.1 748.3 939 745.5 938.9C745.3 938.9 745.2 938.9 745 938.9H717.1C714.3 938.9 711.8 940 709.9 941.9C708.1 943.7 706.9 946.3 706.9 949.1V1256.6C706.9 1259.4 708 1261.9 709.9 1263.8C711.7 1265.6 714.3 1266.8 717.1 1266.8H1024.4C1027.2 1266.8 1029.7 1265.7 1031.6 1263.8C1033.4 1262 1034.6 1259.4 1034.6 1256.6V1228.7C1034.6 1228.5 1034.6 1228.4 1034.6 1228.2C1034.5 1225.5 1033.4 1223 1031.6 1221.3C1029.8 1219.5 1027.4 1218.4 1024.6 1218.3C1024.7 1218.2 1024.5 1218.2 1024.3 1218.2Z" fill="#B8BAC6"/>
<path d="M797.802 1089C798.002 1089 798.202 1089 798.402 1089H831.502C837.402 1089 842.802 1091.4 846.702 1095.3C850.602 1099.2 853.002 1104.6 853.002 1110.6V1139.6V1147.9V1176.9C853.002 1182.8 850.602 1188.2 846.702 1192.1C842.802 1196 837.402 1198.4 831.502 1198.4H798.102C792.202 1198.4 786.802 1196 782.902 1192.1C779.002 1188.2 776.602 1182.8 776.602 1176.8V1147.8V1139.5V1110.8C776.602 1110.6 776.602 1110.4 776.602 1110.2C776.702 1104.4 779.102 1099.1 782.902 1095.3C786.802 1091.5 792.002 1089.1 797.802 1089ZM798.202 1097.7C794.702 1097.7 791.402 1099.1 789.102 1101.5C786.802 1103.8 785.302 1107.1 785.302 1110.6V1139.6V1147.9V1176.9C785.302 1180.4 786.702 1183.7 789.102 1186C791.402 1188.3 794.702 1189.8 798.202 1189.8H831.602C835.102 1189.8 838.402 1188.4 840.702 1186C843.002 1183.7 844.502 1180.4 844.502 1176.9V1147.9V1139.6V1110.6C844.502 1107.1 843.102 1103.8 840.702 1101.5C838.402 1099.2 835.102 1097.7 831.602 1097.7H798.202Z" fill="#B8BAC6"/>
<path d="M890.6 1059.6C890.8 1059.6 891 1059.6 891.2 1059.6H924.3C930.2 1059.6 935.6 1062 939.5 1065.9C943.4 1069.8 945.8 1075.2 945.8 1081.2V1110.2V1148V1177C945.8 1182.9 943.4 1188.3 939.5 1192.2C935.6 1196.1 930.2 1198.5 924.3 1198.5H891C885.1 1198.5 879.7 1196.1 875.8 1192.2C871.9 1188.3 869.5 1182.9 869.5 1176.9V1147.9V1110.1V1081.4C869.5 1081.2 869.5 1081 869.5 1080.8C869.6 1075 872 1069.7 875.8 1065.9C879.6 1062 884.8 1059.6 890.6 1059.6ZM891 1068.3C887.5 1068.3 884.2 1069.7 881.9 1072.1C879.6 1074.4 878.1 1077.7 878.1 1081.2V1110.2V1148V1177C878.1 1180.5 879.5 1183.8 881.9 1186.1C884.2 1188.4 887.5 1189.9 891 1189.9H924.4C927.9 1189.9 931.2 1188.5 933.5 1186.1C935.8 1183.8 937.3 1180.5 937.3 1177V1148V1110.2V1081.2C937.3 1077.7 935.9 1074.4 933.5 1072.1C931.2 1069.8 927.9 1068.3 924.4 1068.3H891Z" fill="#B8BAC6"/>
<path d="M983.501 1021C983.701 1021 983.901 1021 984.101 1021H1017.2C1023.1 1021 1028.5 1023.4 1032.4 1027.3C1036.3 1031.2 1038.7 1036.6 1038.7 1042.6V1071.6V1148V1176.7C1038.7 1176.9 1038.7 1177.1 1038.7 1177.3C1038.6 1183.1 1036.2 1188.4 1032.4 1192.2C1028.6 1196 1023.3 1198.4 1017.5 1198.5C1017.3 1198.5 1017.1 1198.5 1016.9 1198.5H984.101C983.901 1198.5 983.701 1198.5 983.501 1198.5C977.701 1198.4 972.401 1196 968.601 1192.2C964.801 1188.4 962.401 1183.1 962.301 1177.3C962.301 1177.1 962.301 1176.9 962.301 1176.7V1148V1071.6V1042.9C962.301 1042.7 962.301 1042.5 962.301 1042.3C962.401 1036.5 964.801 1031.2 968.601 1027.4C972.401 1023.5 977.601 1021 983.501 1021ZM983.801 1029.7C980.301 1029.7 977.001 1031.1 974.701 1033.5C972.401 1035.8 970.901 1039.1 970.901 1042.6V1071.6V1148V1177C970.901 1180.5 972.301 1183.8 974.701 1186.1C977.001 1188.4 980.301 1189.9 983.801 1189.9H1017.2C1020.7 1189.9 1024 1188.5 1026.3 1186.1C1028.6 1183.8 1030.1 1180.5 1030.1 1177V1148V1071.6V1042.6C1030.1 1039.1 1028.7 1035.8 1026.3 1033.5C1024 1031.2 1020.7 1029.7 1017.2 1029.7H983.801Z" fill="#B8BAC6"/>
<path d="M798.5 1063.5C796.8 1065.2 794.1 1065.3 792.4 1063.6C790.7 1061.9 790.6 1059.2 792.3 1057.5L864.9 982.8C866.6 981.1 869.3 981 871 982.7C871.1 982.8 871.2 982.9 871.2 982.9L916.3 1027.6L992.2 934C993.7 932.1 996.5 931.8 998.3 933.4C1000.2 934.9 1000.5 937.7 998.9 939.5L919.9 1036.9C919.8 1037 919.7 1037.1 919.6 1037.2C917.9 1038.9 915.2 1038.9 913.5 1037.2L868 992L798.5 1063.5Z" fill="#B8BAC6"/>
<path d="M953 949.1C950.6 949.5 948.4 948 947.9 945.6C947.5 943.2 949 941 951.4 940.5L994.8 932.3C997.2 931.9 999.4 933.4 999.9 935.8C999.9 935.9 999.9 936.1 1000 936.2L1004.1 979.4C1004.3 981.8 1002.6 983.9 1000.2 984.1C997.8 984.3 995.7 982.6 995.5 980.2L991.8 941.7L953 949.1Z" fill="#B8BAC6"/>
<path fill-rule="evenodd" clip-rule="evenodd" d="M886.401 625.4L911.901 555.7L918.101 538.7L934.701 493.3L897.301 479.7L895.101 485.7L828.601 460.7L830.601 455.2L793.701 441.7L722.801 635.6L863.701 687.2L886.401 625.4Z" fill="white"/>
<path fill-rule="evenodd" clip-rule="evenodd" d="M390.8 1209.6C389.9 1211.2 373 1268.5 373 1268.5C373 1268.5 371.801 1275.2 380.401 1275.9C388.901 1276.6 446.8 1275.9 446.8 1275.9C446.8 1275.9 452.8 1272.7 451.6 1266.8C450.4 1260.9 435.1 1208.7 435.1 1208.7L390.8 1209.6Z" fill="#190E61"/>
<path fill-rule="evenodd" clip-rule="evenodd" d="M450.501 343.3L427.201 355.2C427.201 355.2 392.501 360.5 360.401 370.7C328.301 380.9 307.801 418.2 297.901 437.9C288.001 457.5 241.401 555.2 240.001 588.9C239.401 604.4 240.501 623.2 247.801 636.6C256.301 652.4 272.301 662 293.101 666C331.601 673.4 351.501 673.6 351.501 673.6L340.701 771.2L371.201 776L377.201 1214.3L446.201 1213.8L484.501 854.2L515.901 1217.1L584.701 1216.2L597.201 779.5L620.301 774.4C620.301 774.4 612.501 663.8 608.501 560.6C605.301 478.1 606.201 399.4 603.201 391.9C596.501 375.1 559.601 361.2 520.101 349C480.401 336.8 477.401 354.1 450.501 343.3ZM351.601 559.8L340.801 584.7L353.801 586.5L351.601 559.8Z" fill="#313D6D"/>
<path fill-rule="evenodd" clip-rule="evenodd" d="M451.1 302.1C451.1 302.1 424.7 285.4 418.7 228.4C412.7 171.4 439.9 175.1 439.9 175.1C439.9 175.1 456.7 138.6 484.7 145.3C512.6 152 532.2 154.5 539.1 140.5C546 126.4 567.9 129 579.2 151.3C590.5 173.7 575.5 203 575.5 203C575.5 203 582.9 237.2 561.2 253.6C539.6 269.9 496.2 272 451.1 302.1Z" fill="#190E61"/>
<path fill-rule="evenodd" clip-rule="evenodd" d="M562.001 203C562.001 203 585.101 324 523.201 329L523.901 364.4C523.901 364.4 494.101 384.1 471.101 371.2C448.001 358.3 449.401 346.3 449.401 346.3L446.201 279.6C446.201 279.6 416.701 277.3 420.101 260.2C423.601 243.1 440.901 238.3 445.701 243.6C450.501 248.9 450.101 262.8 457.001 261.1C463.901 259.5 460.901 244.7 460.701 230.6C460.501 216.5 463.201 199.9 484.701 200.6C506.101 201.4 534.701 211.1 562.001 203Z" fill="#F7B58B"/>
<path fill-rule="evenodd" clip-rule="evenodd" d="M447.8 344.7L427.3 355.2C427.3 355.2 427 355.2 426.4 355.3L517.3 558.9L545.1 357.2C538.1 354.7 530.7 352.3 523.3 350L499.6 371.5L449.5 345.2L447.8 344.7Z" fill="white"/>
<path fill-rule="evenodd" clip-rule="evenodd" d="M526.901 488.3L517.201 558.9L488.401 494.4L494.101 406.3L483.801 393.7L499.501 371.5L520.201 391.8L511.201 403.8L526.901 488.3Z" fill="#231F20"/>
<path fill-rule="evenodd" clip-rule="evenodd" d="M602.9 391.9C605.9 399.4 605 478 608.2 560.6C609.5 593.8 611.2 627.8 612.9 658.7C631.9 676.1 675.3 671.9 696.3 668.6C706 667.1 722.5 661 738.5 654.4L716.1 646.2C711.2 644.4 708.7 638.9 710.5 634L737.4 560.5C719.3 567 698.5 574 686.6 576.3C662.4 580.9 653.4 532 640.2 478.4C627 424.8 602.9 391.9 602.9 391.9Z" fill="#190E61"/>
<path fill-rule="evenodd" clip-rule="evenodd" d="M911.9 555.7L923.4 559.5L947 495C948.8 490.1 946.3 484.6 941.4 482.8L901.5 468.2L897.3 479.6L934.7 493.3L911.9 555.7ZM793.7 441.7L830.6 455.2L834.8 443.8L795.4 429.4C790.5 427.6 785 430.1 783.2 435L737.3 560.4L710.4 633.9C708.6 638.8 711.1 644.3 716 646.1L738.4 654.3L862 699.6C866.9 701.4 872.4 698.9 874.2 694L897.9 629.3L886.4 625.5L863.8 687.3L722.8 635.7L793.7 441.7Z" fill="#2A6FDF"/>
<path fill-rule="evenodd" clip-rule="evenodd" d="M484.301 854.3L515.701 1217.2L524.501 1217.1L516.801 1266.5C516.801 1266.5 515.001 1274.1 530.901 1274.8C546.801 1275.5 652.901 1275.5 652.901 1275.5C652.901 1275.5 658.001 1266.7 647.501 1258.8C637.001 1250.8 587.701 1230.6 581.101 1224.5C577.401 1221.1 576.301 1218.3 575.901 1216.4L584.401 1216.3L596.901 779.6C596.901 779.6 560.901 781 541.101 777.3C521.301 773.6 516.001 743.1 516.001 743.1C516.001 743.1 512.001 751.9 505.301 761.4C505.301 761.4 495.301 799 489.501 813.3C483.601 827.5 484.301 854.3 484.301 854.3Z" fill="#190E61"/>
<path fill-rule="evenodd" clip-rule="evenodd" d="M657.402 517.1C657.402 517.1 661.802 518.4 662.902 517.4C664.102 516.4 758.102 368.5 758.102 368.5C758.102 368.5 762.302 368.8 762.502 372.1C762.702 375.3 702.102 463 702.102 463C702.102 463 698.302 472.5 700.902 474.8C703.602 477.1 775.002 372.5 775.002 372.5C775.002 372.5 776.002 364.1 773.802 359.8C771.602 355.5 767.302 354.8 767.302 354.8L770.502 349.8C770.502 349.8 771.102 346 770.302 344.5C769.502 343.1 764.102 338.4 764.102 338.4L771.702 327.6C771.702 327.6 774.202 322.9 772.902 320.5C771.702 318.1 749.802 302.8 749.802 302.8C749.802 302.8 746.502 302 744.402 304.2L733.302 318.9L727.502 316.5C727.502 316.5 722.302 316.4 720.202 319.3C718.102 322.2 610.102 480.6 610.102 480.6C610.102 480.6 609.302 483.6 610.102 485L479.502 679.7L431.602 751.1C431.602 751.1 432.202 797.3 432.902 799C433.502 800.7 465.002 790.3 471.002 788C477.002 786 639.802 543.1 657.402 517.1Z" fill="#2A6FDF"/>
<path fill-rule="evenodd" clip-rule="evenodd" d="M907.301 615.501C910.401 617.401 911.801 621.301 910.501 624.901C908.901 629.101 904.201 631.401 900.001 630.001L880.201 623.401C876.001 622.001 873.801 617.401 875.301 613.201C876.801 609.301 881.001 607.001 885.101 607.901L883.201 607.301C878.201 605.601 875.701 600.301 877.501 595.401C879.301 590.501 884.901 587.801 889.901 589.501L891.301 590.001L891.401 589.801C886.101 588.001 883.401 582.3 885.401 577.1C887.301 571.9 893.201 569.001 898.501 570.701C894.301 568.801 892.201 564 893.801 559.6C895.601 554.9 900.901 552.301 905.701 553.901L927.901 561.301C932.701 562.901 935.101 568.001 933.401 572.801C931.801 577.101 927.201 579.601 922.801 578.801V578.901L923.301 579.1C928.601 580.9 931.401 586.601 929.401 591.801C927.501 597.001 921.501 599.9 916.201 598.1L915.201 597.801L915.001 598.201C918.701 600.401 920.401 605.001 918.801 609.301C917.101 613.901 912.201 616.501 907.501 615.501H907.301Z" fill="#F7B58B"/>
<path fill-rule="evenodd" clip-rule="evenodd" d="M461.301 604.3L478.501 608.1L465.701 683.3L447.701 679.8L461.301 604.3Z" fill="white"/>
<path fill-rule="evenodd" clip-rule="evenodd" d="M477.6 613.4L467 675.7C469.7 677 474.3 678.4 479.7 679.9C498.8 685.1 529.7 691 537.5 691.5C538.2 691.5 538.8 691.6 539.4 691.6C549.4 691.8 558.2 688.8 559.7 684.6C561.3 680.3 558.8 676.4 558.8 676.4C564.4 675.9 571.4 673.1 572.5 669.2C573.6 665.4 571.8 660.9 571.8 660.9C571.8 660.9 582.4 657.8 582.8 652.9C583.1 648.1 580.1 643.4 580.1 643.4C580.1 643.4 592.6 639.9 592.8 633.6C593 627.3 584.6 625 584.6 625C584.6 625 572 624.5 559.3 623.8C546.6 623.1 523.2 617.8 523.2 617.8C523.2 617.8 538.3 602.1 533.3 599.8C528.3 597.5 495.1 610.4 485.5 612.3C482.2 613 479.6 613.3 477.6 613.4Z" fill="#F7B58B"/>
<path d="M538.102 675.9C538.102 675.9 553.002 676.7 555.202 676.6M546.102 641C546.102 641 573.802 643.5 578.402 643.5M543.802 658.5C543.802 658.5 558.602 660.6 568.802 659.9" stroke="#231F20" stroke-width="1.8986" stroke-miterlimit="22.9256"/>
<path d="M375.202 777.1C375.202 777.1 404.402 780.9 432.402 783.4M520.802 394.5L525.202 400.2L542.202 366.7M430.802 361.3L473.002 402.3L481.802 394.8M406.802 362.8L410.302 412.2L437.302 424.2L425.102 446.1L517.002 563L568.802 446.4L554.002 426.4L571.302 409.3L557.902 364.4M353.802 554.2L379.202 496.7M314.102 583.1L459.002 601.6C459.002 601.6 460.502 602.5 461.302 604.3M356.802 675.1L446.502 685.9L447.002 683.1M473.702 785.6C476.602 785.5 478.902 785.3 480.402 784.9C495.902 781 501.702 769.4 501.702 769.4M432.002 760.8C438.502 765.3 459.702 780 470.302 788.6M603.402 495.4C610.902 501.6 633.302 519.5 649.902 528.1M657.402 517.1L610.302 485.1M735.102 321.4C735.102 321.4 756.802 334.2 760.202 337.6" stroke="#231F20" stroke-width="2.8479" stroke-miterlimit="22.9256" stroke-linecap="round" stroke-linejoin="round"/>
<path d="M905.502 553.6L927.701 561C932.501 562.6 934.901 567.7 933.201 572.5C931.401 577.2 926.102 579.8 921.302 578.2L899.102 570.8C894.302 569.2 891.902 564.1 893.602 559.3C895.402 554.6 900.802 552 905.502 553.6Z" stroke="#231F20" stroke-width="1.8985" stroke-miterlimit="22.9256"/>
<path d="M898.4 570.5L923.1 578.7C928.4 580.5 931.2 586.2 929.2 591.4C927.3 596.6 921.3 599.5 916 597.7L891.3 589.5C886 587.7 883.2 582 885.2 576.8C887.2 571.6 893.1 568.7 898.4 570.5Z" stroke="#231F20" stroke-width="1.8986" stroke-miterlimit="22.9256"/>
<path d="M889.801 589.3L912.901 597C917.901 598.7 920.401 604 918.601 608.9C916.801 613.8 911.201 616.5 906.201 614.8L883.101 607.1C878.101 605.4 875.601 600.1 877.401 595.2C879.201 590.3 884.801 587.7 889.801 589.3Z" stroke="#231F20" stroke-width="1.8985" stroke-miterlimit="22.9256"/>
<path d="M885.8 608.1L905.6 614.7C909.8 616.1 912 620.7 910.5 624.9C908.9 629.1 904.2 631.4 899.9 630L880.1 623.4C875.9 622 873.7 617.4 875.2 613.2C876.8 608.9 881.5 606.7 885.8 608.1Z" stroke="#231F20" stroke-width="1.8986" stroke-miterlimit="22.9256"/>
<path d="M832.801 479.3L809.001 470.6L800.201 494.6L824.001 503.3L832.801 479.3Z" stroke="#231F20" stroke-width="2.8478" stroke-miterlimit="22.9256" stroke-linecap="round" stroke-linejoin="round"/>
<path d="M839.701 485.8L906.001 510M836.501 494.7L902.801 519M833.201 503.7L899.501 528" stroke="#231F20" stroke-width="2.8479" stroke-miterlimit="22.9256" stroke-linecap="round" stroke-linejoin="round"/>
<path d="M816.4 524L792.7 515.3L783.9 539.3L807.7 548L816.4 524Z" stroke="#231F20" stroke-width="2.8478" stroke-miterlimit="22.9256" stroke-linecap="round" stroke-linejoin="round"/>
<path d="M823.401 530.5L889.701 554.8M820.101 539.4L886.401 563.7M816.801 548.4L883.101 572.7" stroke="#231F20" stroke-width="2.8479" stroke-miterlimit="22.9256" stroke-linecap="round" stroke-linejoin="round"/>
<path d="M800.1 568.7L776.3 560L767.5 584L791.3 592.7L800.1 568.7Z" stroke="#231F20" stroke-width="2.8478" stroke-miterlimit="22.9256" stroke-linecap="round" stroke-linejoin="round"/>
<path d="M807 575.2L873.3 599.5M803.8 584.1L870.1 608.4M800.5 593.1L866.8 617.4" stroke="#231F20" stroke-width="2.8479" stroke-miterlimit="22.9256" stroke-linecap="round" stroke-linejoin="round"/>
<path d="M783.701 613.4L760.001 604.7L751.201 628.7L775.001 637.4L783.701 613.4Z" stroke="#231F20" stroke-width="2.8478" stroke-miterlimit="22.9256" stroke-linecap="round" stroke-linejoin="round"/>
<path d="M790.702 619.9L857.002 644.2M787.402 628.8L853.702 653.1M784.102 637.8L850.402 662.1" stroke="#231F20" stroke-width="2.8479" stroke-miterlimit="22.9256" stroke-linecap="round" stroke-linejoin="round"/>
<path d="M428 259.4C428 259.4 429.4 253.6 435.7 254C441.9 254.5 442.9 259.9 443.4 263.1M442.6 259.5C442.6 259.5 437.4 264 438.5 267.8C439.6 271.6 444.6 270.6 444.6 270.6" stroke="#313D6D" stroke-width="2.8479" stroke-miterlimit="22.9256" stroke-linecap="round" stroke-linejoin="round"/>
<path fill-rule="evenodd" clip-rule="evenodd" d="M503.7 238.6C506.9 238.6 509.4 242.1 509.4 246.5C509.4 250.9 506.8 254.4 503.7 254.4C500.6 254.4 498 250.9 498 246.5C498 242.2 500.6 238.6 503.7 238.6ZM493.7 227.9C492.7 228.6 491.4 228.4 490.7 227.5C490 226.5 490.2 225.2 491.1 224.5C491.1 224.5 502.2 215.9 515.2 223.9C516.2 224.5 516.5 225.9 515.9 226.9C515.3 227.9 513.9 228.2 512.9 227.6C502.4 221.1 493.7 227.9 493.7 227.9ZM540.5 226.8C539.4 227.3 538.1 226.9 537.6 225.8C537.1 224.7 537.5 223.4 538.6 222.9C538.6 222.9 553 215.7 563.2 226.1C564 227 564 228.3 563.2 229.2C562.3 230 561 230 560.1 229.2C552.1 221 540.6 226.8 540.5 226.8ZM548.8 238.2C552 238.2 554.5 241.7 554.5 246.1C554.5 250.5 551.9 254 548.8 254C545.6 254 543.1 250.5 543.1 246.1C543.1 241.7 545.7 238.2 548.8 238.2Z" fill="#313D6D"/>
<path d="M528.002 237.5L537.102 263.5C537.102 263.5 539.202 273.5 535.102 276.2C531.102 278.9 525.402 277.5 523.202 275.4M503.102 283.4C503.102 283.4 506.602 295.9 524.902 295.2" stroke="#313D6D" stroke-width="2.8479" stroke-miterlimit="22.9256" stroke-linecap="round" stroke-linejoin="round"/>
<path fill-rule="evenodd" clip-rule="evenodd" d="M523.5 343L523.2 329C523.2 329 493.5 331.2 476.9 320.8C476.9 320.8 474.8 321.8 476.6 323.6C478.2 325.3 492.9 340.9 523.5 343Z" fill="#313D6D"/>
<path fill-rule="evenodd" clip-rule="evenodd" d="M895.1 485.7L828.5 460.8L837.1 437.3L859.7 445.8C859.6 445 859.5 444.2 859.5 443.4C859.5 436.2 865.4 430.3 872.6 430.3C879.8 430.3 885.7 436.2 885.7 443.4C885.7 447.5 883.8 451.2 880.8 453.6L903.7 462.2L895.1 485.7ZM872.7 436.7C876.4 436.7 879.3 439.7 879.3 443.3C879.3 447 876.3 449.9 872.7 449.9C869 449.9 866.1 446.9 866.1 443.3C866 439.7 869 436.7 872.7 436.7Z" fill="#1B98F0" stroke="#231F20" stroke-width="2.8479" stroke-miterlimit="22.9256" stroke-linecap="round" stroke-linejoin="round"/>
<path d="M809.3 474.2L815.6 489.7L840.5 474.7M792.9 518.8L799.2 534.3L824.1 519.3" stroke="#1B98F0" stroke-width="5.6959" stroke-miterlimit="22.9256" stroke-linecap="round" stroke-linejoin="round"/>
</svg>
